<svg id="download" xmlns="http://www.w3.org/2000/svg" width="34.662" height="34.662" viewBox="0 0 34.662 34.662">
  <g id="Group_7" data-name="Group 7">
    <g id="Group_6" data-name="Group 6">
      <path id="Path_3" data-name="Path 3" d="M32.772,1.89A6.412,6.412,0,0,0,28.208,0H6.454A6.462,6.462,0,0,0,0,6.454V28.208a6.461,6.461,0,0,0,6.454,6.454H28.208a6.461,6.461,0,0,0,6.454-6.454V6.454A6.412,6.412,0,0,0,32.772,1.89Zm-.141,26.318a4.428,4.428,0,0,1-4.423,4.423H6.454a4.428,4.428,0,0,1-4.423-4.423V6.454A4.428,4.428,0,0,1,6.454,2.031H28.208a4.423,4.423,0,0,1,4.423,4.423Z"/>
    </g>
  </g>
  <g id="Group_9" data-name="Group 9" transform="translate(10.932 6.526)">
    <g id="Group_8" data-name="Group 8">
      <path id="Path_4" data-name="Path 4" d="M173.973,104.6a1.016,1.016,0,0,0-1.436,0l-3.65,3.65V97.415a1.015,1.015,0,1,0-2.031,0v10.833l-3.65-3.65a1.015,1.015,0,0,0-1.436,1.436l5.384,5.384a1.015,1.015,0,0,0,1.436,0l5.384-5.384A1.016,1.016,0,0,0,173.973,104.6Z" transform="translate(-161.471 -96.4)"/>
    </g>
  </g>
  <g id="Group_11" data-name="Group 11" transform="translate(6.526 26.105)">
    <g id="Group_10" data-name="Group 10">
      <path id="Path_5" data-name="Path 5" d="M117,385.6H97.417a1.016,1.016,0,0,0,0,2.031H117a1.016,1.016,0,0,0,0-2.031Z" transform="translate(-96.402 -385.601)"/>
    </g>
  </g>
</svg>
